# xmcd
# Track frame offsets:
# 150
# 17352
# 31757
# 60972
# 74152
# 87340
# 102660
# 121635
# 139957
# 157252
# 171372
# 187515
# 208650
# 223185
#
# Disc length: 3152 seconds
# Revision: 0
# Processed by: cddbd v1.4PL0 Copyright (c) Steve Scherf et al.
# Submitted via: VisiTrax 2.9.3.171 - For more info visit www.synapsa.com
#
DISCID=c40c4e0e
DTITLE=Various Artist - Mother Queen Of My Heart
DYEAR=2002
DGENRE=Country
TTITLE0=Lonesome Standard Time - Mother, The Queen Of My Heart
TTITLE1=Seldom Scene - The Sweetest Gift
TTITLE2=James McMurtry - Peter Pan
TTITLE3=Bad Livers - I'm Goin' Back To Mom And Dad
TTITLE4=Kathy Kallick - Use a Napkin
TTITLE5=Austin Lounge Lizards - Forty Years Old and I'm Still Living In My Mom
TTITLE5='s Garage
TTITLE6=Doc Watson - Mama Don't Allow No Music
TTITLE7=Tim and Mollie O'Brien - Unwed Fathers
TTITLE8=Darrell Scott - She Sews The World With Love
TTITLE9=Lonesome River Band - Thank God For A Mama
TTITLE10=Don Rigsby - If I had A Mother Like You
TTITLE11=Lou Reid - Mom's Old Picture Book
TTITLE12=Walter Hyatt - Are We There Yet Momma
TTITLE13=Larel Canyon Ramblers - Shake Hands With Mother Again
EXTD=
EXTT0=
EXTT1=
EXTT2=
EXTT3=
EXTT4=
EXTT5=
EXTT6=
EXTT7=
EXTT8=
EXTT9=
EXTT10=
EXTT11=
EXTT12=
EXTT13=
PLAYORDER=
